# xmcd
#
# Track frame offsets:
#	150
#	18952
#	38337
#	57592
#	81255
#	100642
#	113655
#	154030
#	179910
#
# Disc length: 2735 seconds
#
# Revision: 1
# Processed by: cddbd v1.5.1PL2 Copyright (c) Steve Scherf et al.
# Submitted via: audiograbber 1.83.01
#
DISCID=670aad09
DTITLE=JUDAS PRIEST - FROM  SAN ANTONIO TO ST. LOUIS
DYEAR=1986
DGENRE=HEAVY METAL
TTITLE0=Electric eye
TTITLE1=Living after midnight
TTITLE2=Metal gods
TTITLE3=The green manalishi (with the two-pronged crown)
TTITLE4=Some heads are gonna roll
TTITLE5=Breakin' the law
TTITLE6=You've got another thing comin'
TTITLE7=Turbo lover
TTITLE8=Hell bent for leather
EXTD=
EXTT0=
EXTT1=
EXTT2=
EXTT3=
EXTT4=
EXTT5=
EXTT6=
EXTT7=
EXTT8=
PLAYORDER=
